<svg xmlns="http://www.w3.org/2000/svg" xmlns:xlink="http://www.w3.org/1999/xlink" width="500" zoomAndPan="magnify" viewBox="0 0 375 374.999991" height="500" preserveAspectRatio="xMidYMid meet" version="1.0"><defs><clipPath id="416b90398b"><path d="M 124.363281 269.917969 L 184.589844 269.917969 L 184.589844 330.144531 L 124.363281 330.144531 Z M 124.363281 269.917969 " clip-rule="nonzero"/></clipPath><clipPath id="cdcda682ad"><path d="M 154.476562 269.917969 C 137.84375 269.917969 124.363281 283.398438 124.363281 300.03125 C 124.363281 316.660156 137.84375 330.144531 154.476562 330.144531 C 171.105469 330.144531 184.589844 316.660156 184.589844 300.03125 C 184.589844 283.398438 171.105469 269.917969 154.476562 269.917969 Z M 154.476562 269.917969 " clip-rule="nonzero"/></clipPath><clipPath id="c53a53391e"><path d="M 240.285156 269.917969 L 300.511719 269.917969 L 300.511719 330.144531 L 240.285156 330.144531 Z M 240.285156 269.917969 " clip-rule="nonzero"/></clipPath><clipPath id="827852d784"><path d="M 270.398438 269.917969 C 253.769531 269.917969 240.285156 283.398438 240.285156 300.03125 C 240.285156 316.660156 253.769531 330.144531 270.398438 330.144531 C 287.03125 330.144531 300.511719 316.660156 300.511719 300.03125 C 300.511719 283.398438 287.03125 269.917969 270.398438 269.917969 Z M 270.398438 269.917969 " clip-rule="nonzero"/></clipPath></defs><path fill="#ffffff" d="M 343.667969 94.316406 C 337.632812 86.53125 328.613281 82.09375 318.792969 82.09375 L 145.890625 82.09375 C 139.855469 82.09375 134.980469 86.96875 134.980469 93.007812 C 134.980469 99.042969 139.855469 103.917969 145.890625 103.917969 L 318.792969 103.917969 C 321.773438 103.917969 324.613281 105.300781 326.429688 107.625 C 328.25 110.027344 328.902344 113.007812 328.175781 115.917969 L 301.335938 220.082031 C 299.296875 228.011719 292.171875 233.539062 284.023438 233.539062 L 138.980469 233.539062 C 128.289062 233.539062 118.832031 225.972656 116.578125 215.5 L 114.25 204.878906 L 252.164062 204.878906 C 258.199219 204.878906 263.074219 200.003906 263.074219 193.96875 C 263.074219 187.929688 258.199219 183.058594 252.164062 183.058594 L 109.59375 183.058594 L 103.703125 155.5625 L 265.109375 155.5625 C 271.148438 155.5625 276.023438 150.6875 276.023438 144.652344 C 276.023438 138.613281 271.148438 133.738281 265.109375 133.738281 L 98.972656 133.738281 L 95.554688 117.808594 C 91.335938 98.390625 80.351562 81.078125 64.421875 69.074219 L 42.675781 52.636719 C 37.875 49 31.035156 49.945312 27.398438 54.746094 C 23.761719 59.546875 24.707031 66.382812 29.507812 70.019531 L 51.257812 86.460938 C 62.96875 95.332031 71.117188 108.0625 74.171875 122.394531 L 95.191406 220.082031 C 99.628906 240.523438 117.960938 255.359375 138.910156 255.359375 L 283.878906 255.359375 C 301.988281 255.359375 317.773438 243.140625 322.355469 225.539062 L 349.199219 121.375 C 351.671875 111.992188 349.632812 102.097656 343.667969 94.316406 Z M 343.667969 94.316406 " fill-opacity="1" fill-rule="nonzero"/><path fill="#ffffff" d="M 182.117188 298.132812 C 182.117188 299.035156 182.070312 299.9375 181.980469 300.839844 C 181.894531 301.742188 181.761719 302.636719 181.585938 303.523438 C 181.40625 304.410156 181.1875 305.289062 180.925781 306.15625 C 180.664062 307.019531 180.359375 307.871094 180.011719 308.707031 C 179.664062 309.546875 179.277344 310.363281 178.851562 311.160156 C 178.425781 311.960938 177.960938 312.734375 177.457031 313.488281 C 176.953125 314.238281 176.414062 314.964844 175.839844 315.667969 C 175.265625 316.367188 174.660156 317.035156 174.019531 317.675781 C 173.378906 318.316406 172.710938 318.921875 172.007812 319.496094 C 171.308594 320.070312 170.582031 320.609375 169.832031 321.113281 C 169.078125 321.617188 168.304688 322.082031 167.503906 322.507812 C 166.707031 322.933594 165.886719 323.320312 165.050781 323.667969 C 164.214844 324.015625 163.363281 324.320312 162.5 324.582031 C 161.632812 324.84375 160.753906 325.0625 159.867188 325.242188 C 158.980469 325.417969 158.085938 325.550781 157.183594 325.640625 C 156.28125 325.726562 155.378906 325.773438 154.472656 325.773438 C 153.570312 325.773438 152.667969 325.726562 151.765625 325.640625 C 150.863281 325.550781 149.96875 325.417969 149.082031 325.242188 C 148.195312 325.0625 147.316406 324.84375 146.449219 324.582031 C 145.585938 324.320312 144.734375 324.015625 143.898438 323.667969 C 143.058594 323.320312 142.242188 322.933594 141.445312 322.507812 C 140.644531 322.082031 139.871094 321.617188 139.117188 321.113281 C 138.367188 320.609375 137.640625 320.070312 136.9375 319.496094 C 136.238281 318.921875 135.570312 318.316406 134.929688 317.675781 C 134.289062 317.035156 133.683594 316.367188 133.109375 315.667969 C 132.535156 314.964844 131.996094 314.238281 131.492188 313.488281 C 130.988281 312.734375 130.523438 311.960938 130.097656 311.160156 C 129.671875 310.363281 129.285156 309.546875 128.9375 308.707031 C 128.589844 307.871094 128.285156 307.019531 128.023438 306.15625 C 127.761719 305.289062 127.542969 304.410156 127.363281 303.523438 C 127.1875 302.636719 127.054688 301.742188 126.964844 300.839844 C 126.878906 299.9375 126.832031 299.035156 126.832031 298.132812 C 126.832031 297.226562 126.878906 296.324219 126.964844 295.421875 C 127.054688 294.519531 127.1875 293.625 127.363281 292.738281 C 127.542969 291.851562 127.761719 290.972656 128.023438 290.105469 C 128.285156 289.242188 128.589844 288.390625 128.9375 287.554688 C 129.285156 286.71875 129.671875 285.898438 130.097656 285.101562 C 130.523438 284.304688 130.988281 283.527344 131.492188 282.773438 C 131.996094 282.023438 132.535156 281.296875 133.109375 280.597656 C 133.683594 279.894531 134.289062 279.226562 134.929688 278.585938 C 135.570312 277.945312 136.238281 277.339844 136.9375 276.765625 C 137.640625 276.191406 138.367188 275.652344 139.117188 275.148438 C 139.871094 274.644531 140.644531 274.179688 141.445312 273.753906 C 142.242188 273.328125 143.058594 272.941406 143.898438 272.59375 C 144.734375 272.246094 145.585938 271.941406 146.449219 271.679688 C 147.316406 271.417969 148.195312 271.199219 149.082031 271.019531 C 149.96875 270.84375 150.863281 270.710938 151.765625 270.625 C 152.667969 270.535156 153.570312 270.488281 154.472656 270.488281 C 155.378906 270.488281 156.28125 270.535156 157.183594 270.625 C 158.085938 270.710938 158.980469 270.84375 159.867188 271.019531 C 160.753906 271.199219 161.632812 271.417969 162.5 271.679688 C 163.363281 271.941406 164.214844 272.246094 165.050781 272.59375 C 165.886719 272.941406 166.707031 273.328125 167.503906 273.753906 C 168.304688 274.179688 169.078125 274.644531 169.832031 275.148438 C 170.582031 275.652344 171.308594 276.191406 172.011719 276.765625 C 172.710938 277.339844 173.378906 277.945312 174.019531 278.585938 C 174.660156 279.226562 175.265625 279.894531 175.839844 280.597656 C 176.414062 281.296875 176.953125 282.023438 177.457031 282.773438 C 177.960938 283.527344 178.425781 284.304688 178.851562 285.101562 C 179.277344 285.898438 179.664062 286.71875 180.011719 287.554688 C 180.359375 288.390625 180.664062 289.242188 180.925781 290.105469 C 181.1875 290.972656 181.40625 291.851562 181.585938 292.738281 C 181.761719 293.625 181.894531 294.519531 181.980469 295.421875 C 182.070312 296.324219 182.117188 297.226562 182.117188 298.132812 Z M 182.117188 298.132812 " fill-opacity="1" fill-rule="nonzero"/><path fill="#ffffff" d="M 297.042969 298.132812 C 297.042969 299.035156 297 299.9375 296.910156 300.839844 C 296.820312 301.742188 296.6875 302.636719 296.511719 303.523438 C 296.335938 304.410156 296.117188 305.289062 295.851562 306.15625 C 295.589844 307.019531 295.285156 307.871094 294.941406 308.707031 C 294.59375 309.546875 294.207031 310.363281 293.78125 311.160156 C 293.351562 311.960938 292.886719 312.734375 292.386719 313.488281 C 291.882812 314.238281 291.34375 314.964844 290.769531 315.667969 C 290.195312 316.367188 289.585938 317.035156 288.949219 317.675781 C 288.308594 318.316406 287.636719 318.921875 286.9375 319.496094 C 286.238281 320.070312 285.511719 320.609375 284.757812 321.113281 C 284.007812 321.617188 283.230469 322.082031 282.433594 322.507812 C 281.632812 322.933594 280.816406 323.320312 279.980469 323.667969 C 279.144531 324.015625 278.292969 324.320312 277.425781 324.582031 C 276.558594 324.84375 275.683594 325.0625 274.796875 325.242188 C 273.90625 325.417969 273.011719 325.550781 272.113281 325.640625 C 271.210938 325.726562 270.308594 325.773438 269.402344 325.773438 C 268.496094 325.773438 267.59375 325.726562 266.695312 325.640625 C 265.792969 325.550781 264.898438 325.417969 264.011719 325.242188 C 263.121094 325.0625 262.246094 324.84375 261.378906 324.582031 C 260.511719 324.320312 259.660156 324.015625 258.824219 323.667969 C 257.988281 323.320312 257.171875 322.933594 256.371094 322.507812 C 255.574219 322.082031 254.800781 321.617188 254.046875 321.113281 C 253.292969 320.609375 252.566406 320.070312 251.867188 319.496094 C 251.167969 318.921875 250.496094 318.316406 249.859375 317.675781 C 249.21875 317.035156 248.609375 316.367188 248.035156 315.667969 C 247.460938 314.964844 246.921875 314.238281 246.421875 313.488281 C 245.917969 312.734375 245.453125 311.960938 245.027344 311.160156 C 244.597656 310.363281 244.210938 309.546875 243.867188 308.707031 C 243.519531 307.871094 243.214844 307.019531 242.953125 306.15625 C 242.6875 305.289062 242.46875 304.410156 242.292969 303.523438 C 242.117188 302.636719 241.984375 301.742188 241.894531 300.839844 C 241.804688 299.9375 241.761719 299.035156 241.761719 298.132812 C 241.761719 297.226562 241.804688 296.324219 241.894531 295.421875 C 241.984375 294.519531 242.117188 293.625 242.292969 292.738281 C 242.46875 291.851562 242.6875 290.972656 242.953125 290.105469 C 243.214844 289.242188 243.519531 288.390625 243.867188 287.554688 C 244.210938 286.71875 244.597656 285.898438 245.027344 285.101562 C 245.453125 284.304688 245.917969 283.527344 246.421875 282.773438 C 246.921875 282.023438 247.460938 281.296875 248.035156 280.597656 C 248.609375 279.894531 249.21875 279.226562 249.859375 278.585938 C 250.496094 277.945312 251.167969 277.339844 251.867188 276.765625 C 252.566406 276.191406 253.292969 275.652344 254.046875 275.148438 C 254.800781 274.644531 255.574219 274.179688 256.371094 273.753906 C 257.171875 273.328125 257.988281 272.941406 258.824219 272.59375 C 259.660156 272.246094 260.511719 271.941406 261.378906 271.679688 C 262.246094 271.417969 263.121094 271.199219 264.011719 271.019531 C 264.898438 270.84375 265.792969 270.710938 266.695312 270.625 C 267.59375 270.535156 268.496094 270.488281 269.402344 270.488281 C 270.308594 270.488281 271.210938 270.535156 272.113281 270.625 C 273.011719 270.710938 273.90625 270.84375 274.796875 271.019531 C 275.683594 271.199219 276.558594 271.417969 277.425781 271.679688 C 278.292969 271.941406 279.144531 272.246094 279.980469 272.59375 C 280.816406 272.941406 281.632812 273.328125 282.433594 273.753906 C 283.230469 274.179688 284.007812 274.644531 284.757812 275.148438 C 285.511719 275.652344 286.238281 276.191406 286.9375 276.765625 C 287.636719 277.339844 288.308594 277.945312 288.949219 278.585938 C 289.585938 279.226562 290.195312 279.894531 290.769531 280.597656 C 291.34375 281.296875 291.882812 282.023438 292.386719 282.773438 C 292.886719 283.527344 293.351562 284.304688 293.78125 285.101562 C 294.207031 285.898438 294.59375 286.71875 294.941406 287.554688 C 295.285156 288.390625 295.589844 289.242188 295.851562 290.105469 C 296.117188 290.972656 296.335938 291.851562 296.511719 292.738281 C 296.6875 293.625 296.820312 294.519531 296.910156 295.421875 C 297 296.324219 297.042969 297.226562 297.042969 298.132812 Z M 297.042969 298.132812 " fill-opacity="1" fill-rule="nonzero"/><g clip-path="url(#416b90398b)"><g clip-path="url(#cdcda682ad)"><path fill="#ffffff" d="M 124.363281 269.917969 L 184.589844 269.917969 L 184.589844 330.144531 L 124.363281 330.144531 Z M 124.363281 269.917969 " fill-opacity="1" fill-rule="nonzero"/></g></g><g clip-path="url(#c53a53391e)"><g clip-path="url(#827852d784)"><path fill="#ffffff" d="M 240.285156 269.917969 L 300.511719 269.917969 L 300.511719 330.144531 L 240.285156 330.144531 Z M 240.285156 269.917969 " fill-opacity="1" fill-rule="nonzero"/></g></g></svg>